<svg xmlns="http://www.w3.org/2000/svg" id="_ÎÓÈ_7" viewBox="0 0 553.41 557.93">
    <defs>
        <style>
            .cls-1{fill:#fff;}.cls-2{fill:none;stroke:#fff;stroke-miterlimit:10;stroke-width:10px;}</style>
    </defs>
    <g>
        <path class="cls-1"
            d="M374.84,164.65c-5.21,2.21-11.24,2.61-15.34,7.35-.87,1.01-2.94,1.31-4.48,1.35-3.97,.11-7.95-.2-11.93-.17-4.89,.04-9.37,.95-10.95,6.94,2.49-.51,4.99-1.41,7.48-1.4,1.78,0,3.81,.92,5.18,2.08,.42,.36-.75,2.96-1.55,4.33-1.16,2,1.2,9.6,4.19,11.03,2.72,1.3,5.88,1.84,8.91,2.29,.8,.12,1.97-1.23,2.73-2.12,1.05-1.24,1.87-2.68,2.79-4.03,1.26,1.23,2.53,2.46,4.46,4.35-5.9,2.88-10.8,5.17-15.59,7.68-1.55,.82-2.71,2.36-4.21,3.32-1.51,.97-3.16,1.86-4.88,2.27-.57,.14-2.32-1.75-2.18-2.02,.93-1.82,1.99-3.73,3.49-5.06,.96-.85,2.76-.76,4.44-2.19-1.23-.33-2.77-1.32-3.65-.9-6.52,3.07-13.1,6.11-19.23,9.86-2.03,1.24-3.26,4.41-3.96,6.95-.3,1.09,1.7,2.81,3.04,4.84-4.07,1.37-8.78,3.41-13.71,4.47-3.71,.8-10.01,7.36-10.44,11.92-.27,2.92-1.01,5.79-1.4,8.71-.16,1.21-.41,2.73,.13,3.67,2.14,3.71,.54,5.72-2.6,7.7-6.32,3.98-12.52,8.16-18.67,12.39-6.29,4.33-7.44,8.72-3.44,17.42,3.14,6.82,5.3,13.66,1.9,21.03-.33,.72-.84,1.36-1.43,2.31-3.88-6.09-8.95-10.9-9.15-18.84-.17-6.55-6.42-9.21-12.74-6.39-5.02-6.34-11.79-3.16-18.2-3.7-.27,2.07-.48,3.66-.87,6.62-3.12-1.11-5.94-2.27-8.85-3.13-5.81-1.72-11.66-3.11-17.1,1.15-2.23,1.74-4.54,3.38-6.69,5.21-.97,.83-2.28,1.97-2.35,3.04-.59,8.37-1.16,16.75-1.18,25.14,0,2.47,1.56,5.06,2.77,7.4,4.56,8.81,15.16,11.67,23.36,5.97,2.06-1.43,3.28-4.44,4.28-6.96,1.53-3.86,13.17-7.35,15.67-4.18,.94,1.2,.86,3.89,.24,5.52-2.68,6.92-5.74,13.69-8.49,20.12,6.48,0,12.5,.02,18.52,0,4.82-.02,6.24,3.12,6.45,7.13,.11,2.14,.09,4.42-.51,6.44-2.06,6.92,2.58,11.24,5.95,16.03,.48,.68,1.98,1.02,2.94,.91,1.78-.2,3.61-.64,5.26-1.34,6.38-2.71,11.21-.28,15.92,5.31,4.95-12.63,17.08-13.62,26.48-18.97,.26,.33,.51,.65,.77,.98l-3.73,5.1,1.02,1.14c1.53-.74,3.02-1.57,4.6-2.2,3.6-1.45,6.83-1.7,10.02,1.53,1.35,1.37,4.12,1.38,6.28,1.88,2.48,.57,5.02,1.46,7.48,1.32,1.95-.11,3.82-1.58,5.32-2.99,2.12-.12,4.24-.25,6.76-.4-.07,1.28-.14,2.54-.27,4.97,2.38-1.96,3.95-3.25,6.14-5.05-1.23,5.55,.84,8.76,5.54,10.38,.38,.13,.64,.73,.87,1.16,4.26,7.89,7.78,9.66,16.42,8.26,5.83-.94,11.6,4.58,11.51,10.76-.03,2.23,.6,4.47,.93,6.7l1.27,.07-2.69,4.79c3.2,1.03,6.29,2.04,9.38,3.02,3.42,1.09,7.37,.59,9.02,5.56,.5,1.5,5.62,2.11,8.58,2,3.84-.14,6.29,1,8.19,4.28,1.14,1.97,4.51,4.18,4.11,5.24-1.72,4.57-3.76,9.4-6.99,12.94-4.41,4.83-10.16,8.42-15.05,12.85-2.03,1.84-3.61,4.35-4.93,6.8-4.88,9-12.08,15.84-20.18,21.78-1.77,1.3-4.24,1.73-6.45,2.33-8.26,2.23-14.99,6.19-21.51,12.32-7.93,7.44-18.33,12.29-27.78,18.06-1.02,.63-2.85-.07-4.56-.16-2.09,5.59-7.09,6.66-12.35,8.12-4.66,1.29-8.93,4.06-13.29,6.35-6.43,3.38-12.1,8.45-20.31,9.52,4.99-8.45,10.82-15.75,13.83-24.07,3.5-9.69,10.78-17.92,11.11-28.85,.06-2.08,2.28-4.03,2.59-6.17,1.04-7.01-2.05-11.13-11.23-14.61-3.68-1.4-5.23-3.68-7.13-7.11-4.58-8.26-10.21-16.01-16.09-23.43-3.11-3.92-2.83-9.53,2.14-13.37-5.31-4.39-5.07-8.56,1.1-14.5,2.57-2.47,5.74-4.35,8.13-6.96,1.57-1.71,3.41-4.45,3.08-6.36-.92-5.25-2.49-10.51-4.67-15.38-1.55-3.46-7.19-3.05-8.05,.58-.95,4.01-3.46,2.96-5.1,2.13-4.63-2.33-8.88-5.41-13.44-7.91-6.98-3.83-9.51-11.51-14.43-15.84-5.62-1.47-10.68-2.5-15.52-4.16-2.92-1.01-5.41-3.22-8.27-4.49-3.99-1.78-8.04-4.14-12.25-4.61-14.56-1.64-27.15-7.15-37.81-17.16-.96-.9-1.99-1.81-3.14-2.43-2.48-1.36-3.98-2.77-2.33-5.93,.48-.91-.17-2.98-1-3.9-6.65-7.43-13.68-14.53-18.44-23.47-1.21-2.27-3.33-4.05-4.67-6.28-2.35-3.92-4.38-8.03-6.61-12.02-1.22-2.18-2.57-4.27-3.87-6.4l-2.11,.78c.81,3.31,1.09,6.89,2.56,9.88,2.9,5.93,6.57,11.47,9.68,17.3,1.3,2.45,1.87,5.28,2.99,7.84,.93,2.13,2.18,4.12,3.3,6.17l1.42-.53v5.77c-3.53-5.09-10.28-7.43-10.96-14.8-.24-2.61-3.78-4.82-5.5-7.41-1.53-2.29-5.45-4.27-1.59-7.88,.34-.32-.49-2.69-1.35-3.4-6.57-5.38-6.84-13.18-8.36-20.58-.35-1.7-1.35-3.65-2.67-4.71-5.52-4.46-8.94-10.11-10.63-16.91-.52-2.1-.9-4.25-1.66-6.26-4.56-12.03-2.87-23.51,1.84-35.23,4.02-10,7.54-20.44,1.45-31.19-.99-1.75-.98-4.06-.4-6.91,1.92,1.49,3.84,2.98,5.91,4.58-.04-.78,.24-2.18-.17-2.43-6.55-3.95-3.56-10.72-4.87-16.18-.17-.72,.25-1.62,.51-2.4q1.56-4.81-3.61-6.33c3.45-9.08,3.53-18.52,1.68-28.27-2.87-.61-6.84-1.49-5.24-7.36-3.83,2.46-7.39,4.75-12.03,7.74l.91-5c-3.72,3.37-6.7,6.08-10.72,9.72,.19-7.77,.61-13.51,6.15-17.77,4.43-3.41,8.25-7.61,12.61-11.15,2.87-2.33,5.83-3.85,7.38-7.98,1.05-2.79,5.77-4.2,8.84-6.25,.85-.57,1.68-1.2,2.45-1.88,9.26-8.12,19.42-14.73,31.09-19.27,1.8,3.43,1.75,7.34,5.92,8.5,.75,.21,.78,3.02,1.21,4.92,6.74-1.35,13.66-2.74,20.89-4.19-.31,1.08-.63,2.23-1.11,3.91,7.86-2.23,13.07,2.99,19.73,6.21l-5.03,3.46c5.36,.74,10.15,1.39,15.77,2.16l1.93-5.19c-3.66,.25-7.2,.49-11.08,.75,.13-1.4,.23-2.44,.32-3.42-1.49-.6-2.98-1.2-4.54-1.84,2.84-5.97,7.84-3.98,12.35-3.55v-1.21c-2.65-.56-5.3-1.12-8.16-1.72,1.08-6.52,6.1-8.06,10.85-10.5,4.8-2.47,7.95,3.71,12.78,1.08-.2,1.8-.36,3.29-.52,4.77,1.31-5.67,6.03-6.25,10.92-7.63-2.41,4.52-4.53,8.49-6.69,12.52,1.67,1.76,3.38,3.57,5.21,5.51-1.7,1.68-4.69-.35-4.75,3.68-.03,1.97-5.16,2.75-8.21,.5-1.02-.75-2.15-1.35-3.45-1.66,6.28,9.6,12.38,10.88,20.37,4.35-.97-.76-1.87-1.46-2.82-2.2q4.98-4.17,11.76,.6c-2.42,1.19-4.47,2.19-5.63,2.76-.45,2.08-.82,3.8-1.19,5.51,2.53-3.99,10.43-4.09,7.4-10.67-1.05-1.52-2.98-3.04-2.97-4.56,0-2.85,6.34-8.15,7.65-6.9,1.88,1.79,4.3,5.7,3.54,7.04-2.1,3.71,1.44,5.1,1.68,7.43h6.29v9.13q7.92-8.13,7.8-12.99c-3.45-2.54-7.63-4.05-8.69-6.78-1.51-3.89,.23-8.1,4.87-10.12,2.04-.88,4.61-3.64,5.69-3.09,4.73,2.4,9.47,.08,14.08,.9,2.81,.49,5.9-.34,6.72,4.55,.39,2.32,5.11,3.91,7.58,5.62,8.36,.61,14.11,5.21,19.21,11.27-.9,.55-1.61,.92-2.25,1.39-.21,.16-.23,.57-.33,.85,7.51,3.33,15,6.66,22.51,9.99-2.32,7.17-2.3,7.12-8.9,4.83-2.61-.91-5.33-1.52-8-2.27-.4,.43-.8,.85-1.2,1.28,1.99,2.23,3.86,4.58,6,6.65,1.74,1.69,3.75,3.12,5.75,4.51,1.96,1.36,2.98,2.66,1.68,5.23-.4,.79,.85,2.41,1.42,3.83-2.17-1-4.51-2.08-6.86-3.16l-.4,.66c1.14,1.52,2.27,3.04,3.68,4.92-13.05,.24-21.42-8.06-30.06-15.09-5.26,4.21-10.13,3.67-12.45-1.18,1.08-.37,2.18-1.14,3.15-1,7.47,1.09,10.28-3.78,12.88-9.43,1.56-3.39,.03-5.06-2.56-6.37-1.77-.9-3.75-1.35-5.61-2.1-2.04-.82-4.46-1.32-5.91-2.76-1.25-1.24-1.38-3.61-2.16-5.96l-4.47,3.35c-2.89-.49-5.36-.9-7.82-1.32l-.57,1.15c2.51,2.39,6.8,4.56,1.84,7.02,.36,2.83,1.58,5.77,.7,6.68-2.55,2.63-5.94,4.44-9.77,7.12l12.69,9.42-.11,1.69c-7.07-2.01-14.01,2.65-20.97-.89,2.09-4.81,4.19-9.62,6.28-14.43l-.95-.42c-2.28,3.25-4.22,6.82-6.95,9.63-1.71,1.77-4.59,2.42-6.97,3.52-.87,.4-2.45,.46-2.62,1-1.91,6.33-9.3,6.69-12.45,11.59-1.97,3.06-4.25,5.97-5.78,9.23-1.21,2.58-1.74,5.52,2.61,6.52,.99,.23,2.12,2.47,2.15,3.82,.11,3.9,1.74,4.99,5.58,5.01,2.82,.02,6.05,1.01,8.37,2.62,6.39,4.43,12.97,7.84,20.96,7.88,1.23,0,2.46,.78,3.48,1.13v11.51h5.13c-1.56,.95-2.57,1.57-3.62,2.22,.24,.71,.26,1.31,.57,1.57,1.26,1.08,3.25,1.8,3.79,3.13,1.26,3.14,3.14,3.79,5.68,2.09,2.34-1.56,3.95-3.3,2.24-6.87-1.66-3.47-1.96-7.6-2.48-9.85,4.41-3.96,9.98-6.68,11.37-10.8,1.83-5.45-2.42-10.28-8.63-13.13,7.85-5.13,1.43-11.29,2.18-16.9,.12-.91-.2-1.87-.37-3.2,11.03,.12,21.11,2.22,30.37,9.42-1.95,6.46,2.82,10.18,9.86,13.3,5.31-1.21,5.57-6.81,6.71-12.36,5.5,7.65,14.26,12.4,16.35,23.81,3.95,2.14,9.96,4.26,14.46,8.13,4.82,4.15,11.35,7.75,11.31,15.67l.08-.06Zm-261.09,16.43l2.1-.18c-.43-3.63-.85-7.26-1.28-10.88-.6,.06-1.21,.11-1.81,.17,.33,3.63,.66,7.26,.99,10.89Z" />
        <path class="cls-1"
            d="M397.18,60.73c-1.9-1.01-3.81-2.03-6.32-3.37l1.52,4.06c3.97-.15,8.73-1.23,9.11,4.64,.14,2.14-1.38,5.2-3.13,6.44-2.48,1.76-2.64,3.39-1.52,5.54,1.91,3.65,.38,5.44-2.98,6.82-4.95,2.04-4.95,3.03-1.78,7.47,2.05,2.86,4.51,5.92,2.28,9.96-.23,.41,.21,1.46,.65,1.92,3.5,3.73,3.89,7.88,2.13,11.8-4.05-.7-8.36-.49-11.64-2.23-4.55-2.42-8.58-6.03-12.36-9.62-5.9-5.61-11.61-11.45-16.99-17.56-2.28-2.59-3.77-5.98-5.14-9.21-.86-2.04-1.65-4.85,3.18-4.34-1.59-2.29-2.61-3.75-3.63-5.21-4.89,3.27-7.5,1.72-9.56-5.49l6.15,.94,.32-1.37c-3.71,.94-5.31-5.16-9.89-2.05-.28,.19-2.83-2.07-3.55-3.57-4.81-10.08-19.97-19.01-30.56-17.63-4.53,.59-7.66-.64-9.34-5.23-.57-1.55-2.2-2.72-3.38-4.11,2.1-1.14,3.78-2.06,6.02-3.28-1.79-1.22-3.08-2.09-4.36-2.97,1.25-6.79,3.11-8.23,9.76-6.8,10.98,2.37,22.09,4.38,32.81,7.67,8.07,2.47,15.57,6.75,23.36,10.14,3.45,1.51,7.14,2.54,10.45,4.3,4.09,2.18,7.89,4.91,12.41,7.77-1.48,.84-2.3,1.3-2.11,1.19,6.11,3.76,12.55,7.74,18.99,11.71l-.92,1.66Z" />
        <path class="cls-1"
            d="M538.26,224.43c1.07,8.29,2.31,16.56,3.19,24.86,4.38,40.97-.51,80.83-14.28,119.66-3.2,9.01-10.48,13.62-18.2,19.14,0-7.41,.23-14.05-.06-20.67-.29-6.51-1.12-13-1.67-19.5-.08-.97-.31-2.24,.17-2.9,6.61-9.03,4.62-19.87,6.52-29.89,2.16-11.38,3.01-23.39,7.45-33.83,3.75-8.81,4.81-17.04,4.82-26.18,0-5.83,1.9-11.71,3.36-17.46,.24-.93,2.65-1.31,4.29-2.05,.81-3.45,1.74-7.37,2.67-11.29l1.74,.1Z" />
        <path class="cls-1"
            d="M507.26,152.28c-1.01,2.1-2.02,4.19-2.95,6.14-2.99-4.65-2.64-6.35,2.43-9.72-1.48-3.09-2.98-6.22-4.47-9.36l1.24-.71c1.52,2.25,3.34,4.35,4.5,6.78,6.15,12.86,12.48,25.66,17.99,38.79,2.06,4.92,2.24,10.69,2.98,16.11,.82,6.01,1.3,12.06,1.91,18.1,.53,5.26,2.3,10.71-2.9,14.78-4.9-4.85-7.54-11.15-8.39-18.95-.76-6.93-3.74-13.63-5.92-21.06h8.31c-.94-7.88-3.67-14.56-8.61-20.42-2.03-2.4-6.65-3.36-3.24-8.84,1.56-2.5-1.03-7.57-1.73-11.48-.38-.05-.75-.11-1.13-.16Z" />
        <path class="cls-1"
            d="M263.12,38.31c.23-.94,.14-2.25,.74-2.76,1.92-1.65,4.1-3.01,5.69-5.5l-6.34,.39c-2.77-6.03,.68-8.3,5.37-10.03,1.47,1.1,3.03,2.26,4.59,3.43l.43-.59c-.68-1.18-1.35-2.37-2.03-3.55,1.14-.51,2.24-1.23,3.43-1.48,2.89-.61,5.83-1.36,8.75-1.36,2.28,0,4.56,1.03,6.84,1.61-.97,2.43-1.69,5-2.98,7.25-1.99,3.46-4.36,6.7-6.57,10.04l1.21,1.05c-3.74,0-7.5-.18-11.23,.06-2.64,.18-5.24,.93-7.86,1.43v.03Z" />
        <path class="cls-1"
            d="M374.75,164.71c.27,2.89,.54,5.78,.72,7.76,.96,1.76,1.36,3.32,2.37,4.1,.93,.73,2.51,.83,3.8,.82,1.12,0,2.22-.71,3.35-.77,.4-.02,.95,.88,1.27,1.45,1.81,3.21,3.79,6.37,5.25,9.74,.48,1.12-.38,2.82-.69,4.6-3.04-1.29-5.66-2.48-8.36-3.43-.37-.13-1.16,.96-1.49,.31-3.06-.49-6.11-1.25-9.18-1.4-6.27-.31-6.87-1.25-4.11-7.15,.76-1.64,1.1-3.47,1.85-5.12,1.68-3.68,3.5-7.3,5.28-10.96,.02-.01-.07,.05-.07,.05Z" />
        <path class="cls-1"
            d="M419.94,79.96l4.69,2.41c4.56-4.73,4.67-4.74,9.4,.26,1.82,1.93,3.83,3.76,5.26,5.95,.78,1.19,.94,3.17,.56,4.56-.15,.55-2.69,.99-3.87,.62-4.6-1.43-8.63-3.59-11.32-8.07-1.12-1.87-3.8-2.82-5.77-4.18,.35-.52,.7-1.04,1.05-1.56Z" />
        <path class="cls-1"
            d="M217.72,39.59c1.25-.79,2.78-1.77,4.32-2.75l-.32-.82c-2.15,.4-4.3,.79-6.45,1.19l-.36-1.28c3.64-1.36,7.28-2.72,10.5-3.93,.94,2.96,1.64,5.18,2.51,7.95,1.69-.98,3.15-1.83,4.81-2.8l1.76,3.63c-5.33,1.29-10.34,2.5-14.9,3.6-.71-1.79-1.25-3.19-1.89-4.8Z" />
        <path class="cls-1"
            d="M187.5,57.53c.03-5.8,13.86-15.16,19.97-13.92-7.08,4.33-10.83,12.16-19.97,13.92Z" />
        <path class="cls-1"
            d="M240.12,37.94l8.66-1.46c-.31,1.47-.2,3.26-1.02,4.36-3.37,4.5-5.09-.07-7.44-1.23l-.2-1.67Z" />
        <path class="cls-1"
            d="M263.13,38.29c-.95,1.73-1.9,3.47-3.31,6.05l-2.81,.15v-9.18c1.53,.75,3.82,1.88,6.11,3.01,0,0,0-.02,0-.02Z" />
    </g>
    <circle class="cls-2" cx="276.53" cy="279.33" r="266.9" />
</svg>