<?xml version="1.0" encoding="UTF-8" standalone="no"?>
<svg
   xmlns:dc="http://purl.org/dc/elements/1.1/"
   xmlns:cc="http://creativecommons.org/ns#"
   xmlns:rdf="http://www.w3.org/1999/02/22-rdf-syntax-ns#"
   xmlns:svg="http://www.w3.org/2000/svg"
   xmlns="http://www.w3.org/2000/svg"
   xmlns:sodipodi="http://sodipodi.sourceforge.net/DTD/sodipodi-0.dtd"
   xmlns:inkscape="http://www.inkscape.org/namespaces/inkscape"
   width="210mm"
   height="297mm"
   viewBox="0 0 210 297"
   version="1.1"
   id="svg8"
   inkscape:version="1.0.2 (e86c870879, 2021-01-15)"
   sodipodi:docname="drawing.svg">
  <defs
     id="defs2" />
  <sodipodi:namedview
     id="base"
     pagecolor="#ffffff"
     bordercolor="#666666"
     borderopacity="1.0"
     inkscape:pageopacity="0.0"
     inkscape:pageshadow="2"
     inkscape:zoom="0.35"
     inkscape:cx="400"
     inkscape:cy="560"
     inkscape:document-units="mm"
     inkscape:current-layer="layer1"
     inkscape:document-rotation="0"
     showgrid="false"
     inkscape:window-width="1536"
     inkscape:window-height="832"
     inkscape:window-x="0"
     inkscape:window-y="0"
     inkscape:window-maximized="1" />
  <metadata
     id="metadata5">
    <rdf:RDF>
      <cc:Work
         rdf:about="">
        <dc:format>image/svg+xml</dc:format>
        <dc:type
           rdf:resource="http://purl.org/dc/dcmitype/StillImage" />
        <dc:title></dc:title>
      </cc:Work>
    </rdf:RDF>
  </metadata>
  <g
     inkscape:label="Layer 1"
     inkscape:groupmode="layer"
     id="layer1">
    <path
       style="fill:none;stroke:#000000;stroke-width:0.264583px;stroke-linecap:butt;stroke-linejoin:miter;stroke-opacity:1"
       d="m 117.78388,213.34393 c -0.88975,0.81907 0.10411,5.35086 -2.44799,3.75614 -5.11002,-3.19308 -9.82897,-6.97356 -14.78537,-10.40025 C 85.119857,196.03155 68.309129,187.44057 53.073172,176.48535 36.49074,164.56196 44.136357,169.32884 31.593493,155.13265 23.108736,145.52948 12.386055,137.69479 5.6519251,126.59545 12.195013,122.37466 18.505849,116.67369 25.58131,113.2895 c 4.33748,-2.07461 9.53214,-2.4853 13.397485,-5.34482 3.744191,-2.76989 5.726261,-7.46645 9.549804,-10.164011 1.656062,-1.168373 10.673862,-8.398159 11.971215,-8.398159 0.01529,0 3.618584,1.204402 3.632115,1.207752 0.438062,0.108458 0.781325,-0.800143 1.198893,-0.628976 4.690549,1.922723 6.515057,8.827584 9.989793,12.381674 4.913413,5.02562 11.139214,9.98517 16.037411,15.40844 3.502979,3.87848 7.172042,7.63149 10.320524,11.80289 1.21882,1.61482 9.94781,16.59058 12.32557,17.59952 0.38691,0.16417 -0.22998,-0.90911 0,-1.26091 0.39721,-0.60761 0.68131,-1.30702 1.19298,-1.82196 3.14138,-3.16145 4.49863,-5.91995 7.59496,-9.41988 0.97638,-1.10364 16.14859,-17.01418 12.40825,-20.59084 -0.52466,-0.5017 -1.30794,-0.68039 -1.82196,-1.19299 -0.91805,-0.91549 -1.32549,-2.35347 -2.42436,-3.04152 -0.68744,-0.43043 -1.62215,0 -2.43323,0 -1.06109,-0.62012 -2.19075,-1.13553 -3.18326,-1.86035 -2.31032,-1.6872 -4.46879,-3.57306 -6.70318,-5.35959 -3.47068,-2.4785 -6.96295,-4.927057 -10.41206,-7.435499 -6.07797,-4.420339 -14.913536,-9.631001 -19.21182,-16.252977 -1.310066,-2.018299 0.925936,-12.724097 1.940081,-15.798223 0.427657,-1.296335 0.863723,-2.701242 1.833775,-3.661644 1.199897,-1.187961 3.047358,-1.499212 4.399879,-2.509999 2.933575,-2.192366 3.913225,-4.411442 6.791755,-5.359584 2.86117,-0.942422 6.54803,-3.910325 9.82148,-2.465704 6.37758,2.814519 15.88216,11.483895 20.20401,16.433106 2.68026,3.069335 2.21794,7.965144 6.33701,10.571521 3.63172,2.298004 20.30549,4.323472 23.87451,2.905692 4.33461,-1.721911 5.45218,-5.897268 7.1904,-7.143159 1.27059,-0.91071 3.07694,-1.107098 4.08687,-2.30034 1.55228,-1.834033 -7.64767,-9.463856 -8.44836,-10.155157 -2.94649,-2.54397 -2.37814,-3.092869 -6.1303,-5.513137 -3.89715,-2.51379 -9.08876,-4.346991 -12.75965,-6.971889 -1.32276,-0.945853 -2.33163,-2.321788 -3.74432,-3.127162 -1.58523,-0.90373 -3.48373,-1.127453 -5.12335,-1.92827 -3.91712,-1.913182 -6.93734,-5.658321 -5.57515,-10.683733 0.89239,-3.292226 3.71773,-6.409415 6.74451,-7.90797 3.51314,-1.739347 5.00557,-1.621481 9.52323,-1.84854 5.52121,-0.277498 11.12751,0 16.66048,0"
       id="path10" />
  </g>
</svg>
