<?xml version="1.0" encoding="UTF-8" standalone="no"?>
<svg
   xmlns:dc="http://purl.org/dc/elements/1.1/"
   xmlns:cc="http://creativecommons.org/ns#"
   xmlns:rdf="http://www.w3.org/1999/02/22-rdf-syntax-ns#"
   xmlns:svg="http://www.w3.org/2000/svg"
   xmlns="http://www.w3.org/2000/svg"
   xmlns:sodipodi="http://sodipodi.sourceforge.net/DTD/sodipodi-0.dtd"
   xmlns:inkscape="http://www.inkscape.org/namespaces/inkscape"
   width="210mm"
   height="297mm"
   viewBox="0 0 210 297"
   version="1.1"
   id="svg8"
   inkscape:version="1.0.2 (e86c870879, 2021-01-15)"
   sodipodi:docname="drawing.svg">
  <defs
     id="defs2" />
  <sodipodi:namedview
     id="base"
     pagecolor="#ffffff"
     bordercolor="#666666"
     borderopacity="1.0"
     inkscape:pageopacity="0.0"
     inkscape:pageshadow="2"
     inkscape:zoom="0.35"
     inkscape:cx="400"
     inkscape:cy="560"
     inkscape:document-units="mm"
     inkscape:current-layer="layer1"
     inkscape:document-rotation="0"
     showgrid="false"
     inkscape:window-width="1536"
     inkscape:window-height="832"
     inkscape:window-x="0"
     inkscape:window-y="0"
     inkscape:window-maximized="1" />
  <metadata
     id="metadata5">
    <rdf:RDF>
      <cc:Work
         rdf:about="">
        <dc:format>image/svg+xml</dc:format>
        <dc:type
           rdf:resource="http://purl.org/dc/dcmitype/StillImage" />
        <dc:title></dc:title>
      </cc:Work>
    </rdf:RDF>
  </metadata>
  <g
     inkscape:label="Layer 1"
     inkscape:groupmode="layer"
     id="layer1"
     style="display:inline">
    <rect
       style="fill:#000000;fill-opacity:0;stroke-width:0.264583"
       id="rect875"
       width="85.915756"
       height="90.232948"
       x="84.959007"
       y="93.578636" />
    <rect
       style="fill:#000000;fill-opacity:0;stroke-width:0.264583"
       id="rect877"
       width="19.731537"
       height="70.944359"
       x="66.012955"
       y="131.92549" />
    <path
       style="fill:none;stroke:#000000;stroke-width:0.264583px;stroke-linecap:butt;stroke-linejoin:miter;stroke-opacity:1"
       d="m 66.012953,131.92549 c 0.685081,-3.01889 0.787297,-6.23259 2.055244,-9.05665 0.08597,-0.19147 1.341578,1.24314 2.385973,5.44817 0.589148,2.37206 0.617461,4.8607 1.210707,7.23175 0.75329,3.0107 1.951918,4.80909 2.44208,7.96112 0.167828,1.07924 -0.568968,3.66336 0.581729,4.86349 1.919703,2.00217 5.177644,1.69962 6.655924,3.68822 2.427708,3.2658 4.336436,11.93399 7.919781,13.4152 2.654475,1.09726 5.975469,-0.0826 8.52809,1.23433 0.37352,0.19271 -0.178234,0.88027 0,1.26091 0.131336,0.28049 5.526789,5.6583 5.938359,5.85863 2.21296,1.07715 4.74654,-1.78447 6.59687,-2.38893 2.65862,-0.86851 13.01067,-6.08484 14.2243,-8.08219 0.28981,-0.47696 -0.21596,-1.15969 0,-1.67432 2.08683,-4.97276 0.40045,-0.0454 1.75995,-1.2107 1.06963,-0.91683 2.1962,-1.83133 2.96475,-3.012 0.45548,-0.69971 0.1799,-1.70435 0.58173,-2.43618 0.62364,-1.13579 1.89972,-1.8538 2.42437,-3.03857 0.3288,-0.74252 -0.21922,-1.65427 0,-2.43618 0.47984,-1.71152 1.82429,-3.08255 2.38597,-4.76899 0.32728,-0.98264 -0.5531,-2.85532 0,-3.70003 0.30807,-0.4705 0.93329,-0.69417 1.19299,-1.19299 0.30361,-0.58318 0.41134,-6.08483 0,-7.01619 -0.34253,-0.77554 -1.40872,-1.03443 -1.82197,-1.77471 -4.75179,-8.51228 2.34479,-0.35299 -3.54647,-4.88416 -0.3121,-0.24004 0.14686,-0.81587 0,-1.18118 -0.25745,-0.64035 -0.66887,-1.23134 -1.16346,-1.7127 -1.53393,-1.49292 -3.32178,-2.6928 -4.83396,-4.20499 -0.23273,-0.23272 -1.14217,-1.97382 -1.74224,-2.45094 -1.86731,-1.4847 -4.98869,-2.56432 -6.10963,-3.68527 -0.33898,-0.33897 -2.34227,-0.30468 -2.90864,-0.62897 -1.82692,-1.04606 -13.12237,0 -15.186968,0 -2.485009,0 -7.778591,0.62091 -10.58038,0 -1.048946,-0.23246 -1.937033,-1.0018 -2.994282,-1.19299 -4.903494,-0.88675 -9.19702,1.63858 -13.240977,-2.42436 -0.620895,-0.62381 -1.618282,-2.88109 -2.385976,-3.64688 -0.05314,-0.053 0.604057,3.16121 0,5.04067 -0.355153,1.10502 -1.488106,2.07973 -1.821963,3.08286 -0.132413,0.39786 0.218467,0.90005 0,1.25796 -0.458917,0.75184 -1.430028,0.2368 -1.739281,1.14278 -0.524714,1.5372 -2.24128,3.5509 -2.24128,4.76014 0,0.72619 -1.784567,2.08007 -1.083728,1.88988 13.511615,-3.66676 13.533779,-8.35291 3.552388,9.66496"
       id="path879" />
    <path
       style="fill:none;stroke:#000000;stroke-width:0.264583px;stroke-linecap:butt;stroke-linejoin:miter;stroke-opacity:1"
       d="m 87.652086,163.31229 c 0.975146,4.3743 3.057729,8.06112 4.644975,12.16906 0.151127,0.39113 -0.227224,0.90554 0,1.25795 0.584978,0.90728 1.622679,1.44177 2.288527,2.29148 1.042537,1.33042 0.988327,3.24927 2.33282,4.64202 0.299337,0.31008 0.907132,0.26185 1.128025,0.63193 0.214908,0.36006 -0.178432,0.87849 0,1.25795 0.664863,1.41394 1.932686,2.50013 2.282617,4.27291 0.23086,1.16952 0.089,2.45138 0.62898,3.52876 1.11529,2.22536 3.87117,3.77482 5.27986,5.83205 0.87329,1.27537 2.94226,5.83796 4.58296,5.83796 0.17914,0 -0.595,-0.16964 -0.53744,0 0.21167,0.62382 0.68356,1.13077 1.09554,1.64479 0.96047,1.19835 2.06213,2.69406 2.94408,3.57601 1.93355,1.93355 4.21104,5.79386 7.81939,4.03962 3.06984,-1.49244 5.8708,-2.6167 9.01532,-4.18432 2.10346,-1.04862 4.85786,-0.968 6.59391,-2.45093 2.74095,-2.34133 3.82602,-4.70598 5.84386,-7.68355 1.6009,-2.36232 4.19505,-4.1203 5.38912,-6.65297 0.24231,-0.51395 -0.24828,-1.37919 0,-1.88988 2.54107,-5.22682 1.44739,-3.6169 -1.16641,-6.2307 -0.32581,-0.32581 1.58199,-2.42183 1.25795,-2.38598 -1.90783,0.2111 -6.01112,1.87028 -8.49265,1.25795 -0.68012,-0.16782 1.98609,-0.50754 1.74814,-1.16641 -0.25196,-0.69763 -1.39804,-0.64734 -1.8515,-1.23433 -0.54516,-0.70571 0.58838,-3.09984 -0.0236,-3.71184 -0.41752,-0.41751 -1.47405,-0.21119 -1.88988,-0.62898 -0.31453,-0.316 -0.31353,-0.94692 -0.62898,-1.2609 -0.29789,-0.2965 -1.05248,0.36498 -1.26091,0 -0.18206,-0.31883 0.18207,-0.78262 0,-1.10145 -0.77816,-1.36269 -3.08144,-0.88577 -4.34082,-1.82196 -0.61535,-0.45744 -2.06094,-2.28843 -2.52181,-2.51886 -0.37505,-0.18752 -0.94491,0.27899 -1.25795,0 -0.20828,-0.18562 0.70245,-0.39389 0.5522,-0.62897 -1.32343,-2.07071 -2.79127,-0.27782 -4.12525,-2.31511 -0.85155,-1.3005 0.0101,-1.28535 0.44294,-2.33282 0.0801,-0.19377 -0.48073,0.14825 -0.62898,0 -0.2972,-0.2972 0.22677,-0.90703 0,-1.26091 -0.28502,-0.44478 -0.83675,-0.67459 -1.12212,-1.11916 -0.19929,-0.31047 -2.65387,-2.88382 -1.82196,-3.71184 0.58453,-0.5818 4.25428,0.61182 4.88121,0.62897 3.08627,0.0844 3.51457,-0.12816 4.80148,1.33768 0.14452,0.16462 2.35673,-0.001 2.3594,0 1.31694,0.6209 2.26473,1.4504 3.50218,2.24128 2.01918,1.29051 6.15376,0.74386 8.37158,1.77472 0.39118,0.18182 0.3082,0.84257 0.62898,1.13098 0.34437,0.30961 1.48208,-0.23704 1.88988,0 0.48193,0.28012 0.73942,0.90154 1.2609,1.09849 1.07554,0.40619 2.35694,-0.35929 3.44904,0 0.69035,0.22712 1.12975,0.98105 1.82491,1.19299 1.15393,0.35179 11.13324,1.71473 11.64049,1.2107 1.38648,-1.37768 1.79049,-3.13753 2.42436,-4.68926 2.72615,-6.67367 -0.2694,2.08547 2.38598,-3.01496 0.35616,-0.6841 0.0491,-4.94391 0,-5.33891 -0.53809,-4.32942 -4.28954,-8.80731 -7.01323,-11.12372 -0.43565,-0.3705 0.26932,-1.21116 0,-1.71566 -0.14998,-0.28094 -10.81494,-10.71072 -11.85605,-11.72907 -0.30047,-0.2939 -0.90553,0.22441 -1.26091,0 -0.42901,-0.27092 -0.64585,-0.80691 -1.07487,-1.07782 -0.84459,-0.53335 -0.98469,0.99934 -1.88988,0.58172 -6.29329,-2.90346 -8.42563,-0.24339 -13.92606,-1.81605 -1.34312,-0.38402 -2.22949,-1.71999 -3.49333,-2.31511 -0.38025,-0.17905 -0.9637,0.2972 -1.2609,0 -0.33125,-0.33125 2.363,-1.15413 2.52181,-1.25795 3.89869,-2.54866 7.05557,-5.37208 10.71326,-8.24756 4.97204,-3.90874 6.6199,-8.57478 8.55762,-14.71744 0.33998,-1.07777 1.62402,-2.5896 1.16346,-3.779767 -0.67276,-1.738511 -3.86694,-5.731108 -3.50809,-7.2849 0.45512,-1.970667 1.67909,-1.747742 3.30729,-3.271856 0.15723,-0.147182 -0.75651,-1.803371 -0.63193,-2.347587 0.1618,-0.706824 1.19298,-1.093904 1.19298,-1.81901 0,-0.210643 -0.43003,-0.06008 -0.63192,0 -1.77212,0.527373 -3.49009,1.226428 -5.26214,1.754044 -3.47775,1.035482 -11.32447,0.41184 -14.6141,0 -2.42183,-0.303196 -11.94474,-3.278925 -13.44473,-4.26109 -1.07156,-0.701641 -1.94043,-1.684333 -3.012,-2.385973 -0.17622,-0.11539 -0.69392,0.201313 -0.63192,0 0.26741,-0.868381 1.83547,-1.808448 1.19298,-2.450941 -1.12365,-1.123654 -6.64262,0.344006 -7.38234,1.08373 -2.10608,2.106073 -1.48878,4.102494 -2.19994,6.446264 -0.56606,1.86555 -1.90854,3.26341 -2.30034,5.483608 -0.13634,0.77256 0.32155,1.637924 0,2.353493 -0.98453,2.190914 -4.859219,4.290546 -4.878259,6.706123 -0.0064,0.813822 0.713629,1.558692 0.605349,2.365302 -0.20346,1.51576 -1.586553,1.82372 -2.285569,2.91455 -0.597615,0.9326 -0.242144,2.761 -1.192988,3.71185 -1.634784,1.63478 -4.355192,-5.55766 -4.810336,-6.7327 -0.686187,-1.77151 -2.41957,-2.844794 -3.578964,-4.207941 -1.477629,-1.737312 -5.110355,-6.392463 -6.097817,-8.5901 -0.415536,-0.924787 -0.124505,-2.080516 -0.581732,-2.985421 -1.613998,-3.19429 -8.012763,-8.746736 -10.17878,-10.92292 -0.737219,-0.740683 -0.695155,-2.577023 -1.260903,-3.071056 -1.19716,-1.045408 -6.286312,-0.372351 -8.008371,-0.628978 -0.951447,-0.141785 -7.700521,-2.602283 -9.109816,-1.192985 -0.288957,0.288954 0.184912,1.509985 0,1.889879 -0.563774,1.158245 -2.124432,1.740101 -2.453894,2.985421 -0.574993,2.173398 0,4.496342 0,6.744515 0,0.874982 -2.099474,10.835817 -1.154599,11.782226 4.023058,4.029578 10.854322,11.4609 16.052178,12.91615 0.781986,0.21894 1.640842,-0.16397 2.436174,0 0.564005,0.11628 0.705197,1.02262 1.257951,1.18413 0.403434,0.11788 0.884799,-0.18761 1.260907,0 0.18761,0.0936 -0.148252,0.48073 0,0.62898 0.625506,0.62551 -0.769927,0 0,0"
       id="path883" />
    <path
       style="fill:none;stroke:#000000;stroke-width:0.264583px;stroke-linecap:butt;stroke-linejoin:miter;stroke-opacity:1"
       d="m 66.012953,131.92549 c -3.583937,1.30564 -7.588734,2.94647 -11.076476,4.06916 -5.25449,1.6914 -10.692887,2.54677 -12.930921,7.29376 -0.520528,1.10407 -2.115058,1.8131 -2.781667,2.8614 -0.194371,0.30566 0.201557,0.78571 0,1.08668 -0.493591,0.73704 -1.889673,1.92764 -2.185176,2.81415 -0.518694,1.55608 -1.236307,5.70552 -0.54334,7.28785 0.962681,2.19821 0.260956,-1.65075 1.133927,1.88989 0.211617,0.85827 -0.0054,2.8567 0.56106,3.46379 0.986351,1.05718 3.38296,0.57971 3.948078,1.68318 0.749028,1.46257 0.95178,2.59472 2.176317,3.77976 0.373981,0.36192 8.540292,1.50341 9.357863,1.70385 1.324123,0.32462 4.278677,1.28447 5.737561,0.56105 1.666099,-0.82616 7.063681,-4.21227 5.545619,-7.16678 -0.186309,-0.3626 -1.107882,-0.12392 -1.101445,-0.53153 0.0084,-0.5289 0.880996,-0.65129 1.122116,-1.12212 0.273074,-0.53321 -0.333266,-1.6443 0,-2.13497 1.072272,-1.5787 3.058713,-3.11728 4.447125,-4.44713 0.604012,-0.57853 3.08061,-1.12211 2.244235,-1.12211 -1.747641,0 1.136195,-0.0191 2.737374,-3.28367 0.180544,-0.36811 0.379516,-1.416 0.631928,-1.66841 0.377614,-0.37762 3.143454,0 3.735467,0 0.712645,0 2.167909,-0.71201 2.137929,0 -0.01111,0.26425 -0.549931,0.29681 -0.561057,0.56106 -5.29e-4,0.0152 2.431428,3.02284 2.707844,3.3191 1.076388,1.15368 1.324723,3.13325 1.674317,4.50323 0.133943,0.5249 1.609135,0.9565 1.116211,1.18118 -2.498389,1.1388 -4.051945,1.64667 -5.967891,4.04848 -0.768162,0.96296 0.720238,6.44359 -0.558104,7.72193 -2.584789,2.58479 -4.30235,6.27443 -6.647066,9.38149 -0.432859,0.57359 -2.205832,1.94804 -2.208797,2.77281 -0.0021,0.57646 0.950423,2.05 0.54334,1.64183 -0.215927,-0.2165 -2.093645,-2.5686 -1.110306,-0.59649 0.645732,1.29503 2.247554,2.12624 3.50514,3.36044 2.28914,2.24658 5.470995,6.36693 8.377486,7.781 2.046028,0.99543 4.562192,-3.29592 5.276903,-4.01895 2.113716,-2.13832 5.351592,-5.16156 6.712029,-7.90797 0.498649,-1.00666 1.122167,-7.78946 -1.61821,-5.45999 -2.475804,2.10458 -4.795573,4.3861 -7.19336,6.57914"
       id="path885" />
  </g>
</svg>
