<svg width="116" height="313" viewBox="0 0 116 313" fill="none" xmlns="http://www.w3.org/2000/svg">
<path d="M41 20C41 19.5 41.2 15.9 42 5.5L44.5 3L47.5 2L51 1H65L69 1.5L73 3L75.5 5L76 7V15.5L76.5 16.5V18L76 19.5V33L74.5 36L75 39L77.5 47L82.5 66.5L83 71V76L84 78L83 79.5V84.5V87L81.5 91L80.5 95L81.5 102L85.5 106.5L95 114L99.5 117L115 124.5L114.5 141.5L112 144.5L113 238V279L114.5 281.5V295.5L111.5 302L92.5 310L78 312L28 310L7 307.5L4.5 306L2 302L1 298V282.5L2.5 280.5V148.5V141.5L1 139.5V133V122L3 120.5L13 116.5L24 111L33 104.5L37 100L36 98.5L37 95.5L35 89.5L34 77.5L35 66L37 57.5L38 53L40 47L41 43.5L42 38.5L41.5 34L41 25.5V20Z" stroke="black"/>
</svg>
