<svg width="236" height="152" viewBox="0 0 236 152" fill="none" xmlns="http://www.w3.org/2000/svg">
<path d="M1.91943 111.984C3.07583 112.769 5.42952 112.643 6.58736 112.71C14.4157 113.16 21.8319 112.727 29.4945 111.149C40.083 108.968 49.3814 104.708 57.7407 97.8167C63.4477 93.1122 67.6525 88.4541 69.9697 81.3868C71.1156 77.892 73.2085 73.8328 72.9673 70.0938" stroke="white" stroke-width="3" stroke-linecap="round"/>
<path d="M52.5 103.5C58.848 108.262 66.3305 114.671 67.5289 122.884C68.4792 129.397 65.6762 135.338 60.7184 139.481C54.8636 144.373 47.4989 148.411 39.9389 149.732C35.8976 150.438 30.6703 151.191 27.7794 147.743" stroke="white" stroke-width="3" stroke-linecap="round"/>
<path d="M69 127.5C70.5818 128.789 82.4369 130.63 84.2693 130.671C86.2746 130.716 89.0878 131.094 90.7617 129.669C92.1925 128.452 93.4626 127.024 94.6143 125.545C98.8111 120.152 100.09 112.197 100.127 105.539C100.163 99.048 99.4404 91.8602 97.6989 85.6037C96.5342 81.4192 95.0885 77.254 94.07 73.0376C93.9955 72.7295 93.6925 71.5225 94.4055 71.9386C96.258 73.0196 97.8185 74.9012 99.2773 76.4116C105.329 82.6777 110.683 89.5831 116.736 95.8425C119.846 99.0589 123.319 102.315 127.441 104.182C131.867 106.186 136.413 104.832 140.6 102.769C147.026 99.6043 151.418 89.8025 155.5 84" stroke="white" stroke-width="3" stroke-linecap="round"/>
<path d="M96.8588 103.749C99.7952 101.516 103.615 99.9213 106.811 98.1001C111.328 95.5259 115.432 92.6647 119.676 89.6515" stroke="white" stroke-width="3" stroke-linecap="round"/>
<path d="M167.54 2.36605C166.47 1.55016 163.187 3.36494 162.537 3.65942C156.463 6.40742 152.095 9.55797 148.711 15.2996C144.441 22.5464 140.68 32.1757 140.545 40.697C140.408 49.3462 141.66 57.7613 143.713 66.1407C145.111 71.8432 146.906 77.7896 151.775 81.5044C158.438 86.5869 168.028 83.5339 175.408 81.951C178.669 81.2515 182.336 80.6254 185.305 79.0279C188.622 77.2432 191.321 73.7134 193.611 70.8241C199.333 63.6037 200.778 55.8421 197.797 47.1231C196.064 42.0553 192.649 37.9044 189.816 33.4298C188.605 31.5167 186.954 29.877 185.694 27.9867C185.057 27.0309 184.045 26.5889 184.186 25.3855" stroke="white" stroke-width="3" stroke-linecap="round"/>
<path d="M196 38.5C198.207 35.595 199.161 28.457 199.548 24.8171C199.919 21.3233 199.83 17.5162 198.849 14.1223C198.139 11.6626 197.556 8.90089 196.145 6.72461C195.935 6.40158 194.538 5.20326 194.936 4.97597" stroke="white" stroke-width="3" stroke-linecap="round"/>
<path d="M197.388 40.5752C205.196 37.4293 214.293 41.7061 220.867 45.8501C224.025 47.8406 226.369 50.6078 228.874 53.3289C230.112 54.6733 231.498 55.9534 232.553 57.4526C233.165 58.3216 233.537 59.4058 234.281 60.1495" stroke="white" stroke-width="3" stroke-linecap="round"/>
</svg>
