<svg width="260" height="513" viewBox="0 0 260 513" fill="none" xmlns="http://www.w3.org/2000/svg">
<path d="M56.5 2C58 13.5 59.2367 27.1194 59.5003 39.2775C59.7528 50.9228 60.6727 62.5145 61.7191 74.1033C63.4118 92.8489 63.2702 113.047 62.1594 131.865C61.7707 138.45 60.959 146.771 65.6286 152.123C76.2092 164.249 100.697 162.752 114.954 163.837C143.789 166.031 174.82 166.617 201.578 178.669C227.303 190.256 249.853 214.175 255.852 242.103C260.681 264.581 256.488 291.653 236.041 305.043C224.686 312.479 208.171 312.613 195.133 313.728C175.047 315.445 154.875 316.04 134.73 316.599C98.7118 317.599 55.9409 314.463 25.3544 336.962C1.98801 354.15 -8.40014 392.196 18.0287 412.234C52.2411 438.173 92.6007 424.355 129.659 414.946C161.302 406.913 197.228 413.357 211.933 445.932C218.566 460.626 215.708 477.323 217.638 492.913C218.368 498.804 219.223 510.652 219.223 510.652" stroke="white" stroke-width="3" stroke-linecap="round"/>
</svg>
